<svg xmlns="http://www.w3.org/2000/svg" xmlns:xlink="http://www.w3.org/1999/xlink" version="1.1" id="Artwork" x="0px" y="0px" width="64" height="64" viewBox="0 0 64.47 78.6" style="enable-background:new 0 0 64.47 78.6;" xml:space="preserve">
<g>
	<g>
		<g>
			<g>
				
				<g>
					<path d="M47.896,19.129c-6.518-0.482-12.048,3.641-15.133,3.641c-3.13,0-7.956-3.537-13.073-3.44       c-6.719,0.098-12.912,3.91-16.377,9.926C-3.667,41.37,1.53,59.32,8.328,69.15c3.325,4.803,7.291,10.216,12.5,10.019       c5.014-0.197,6.911-3.243,12.972-3.243c6.057,0,7.766,3.243,13.068,3.146c5.397-0.1,8.816-4.903,12.117-9.733       c3.82-5.575,5.389-10.973,5.482-11.259c-0.119-0.045-10.52-4.036-10.624-16.019c-0.094-10.018,8.177-14.834,8.553-15.066       C57.703,20.081,50.45,19.318,47.896,19.129z"/>
					<path d="M43.874,12.64C46.642,9.294,48.505,4.635,47.992,0c-3.984,0.158-8.803,2.654-11.661,5.998       c-2.559,2.962-4.807,7.706-4.196,12.246C36.575,18.586,41.108,15.988,43.874,12.64z"/>
				</g>
			</g>
		</g>
	</g>
</g>
<script xmlns=""/></svg>